<?xml version="1.0" standalone="no"?>
<!DOCTYPE svg PUBLIC "-//W3C//DTD SVG 20010904//EN"
 "http://www.w3.org/TR/2001/REC-SVG-20010904/DTD/svg10.dtd">
<svg version="1.0" xmlns="http://www.w3.org/2000/svg"
 width="260.000000pt" height="280.000000pt" viewBox="0 0 260.000000 280.000000"
 preserveAspectRatio="xMidYMid meet">

<g transform="translate(0.000000,280.000000) scale(0.100000,-0.100000)"
fill="#000000" stroke="none">
<path d="M1125 2790 c-167 -27 -343 -87 -469 -162 -331 -195 -552 -502 -633
-878 -25 -118 -25 -380 1 -500 57 -268 172 -480 365 -671 190 -188 395 -298
664 -356 127 -28 380 -25 517 6 512 113 895 501 1007 1022 25 117 25 381 0
498 -110 513 -487 901 -987 1018 -118 27 -359 39 -465 23z m375 -55 c273 -45
510 -172 709 -381 320 -338 424 -809 275 -1254 -64 -191 -166 -351 -318 -498
-502 -485 -1285 -469 -1768 37 -244 255 -358 556 -345 911 13 334 138 614 381
848 90 87 214 176 311 225 101 50 286 106 400 120 79 10 270 5 355 -8z"/>
<path d="M1169 2217 c-155 -53 -253 -170 -280 -333 -27 -169 67 -353 218 -427
l42 -21 -92 -23 c-199 -50 -356 -156 -464 -313 -76 -112 -157 -315 -131 -332
26 -16 34 -7 52 58 40 139 125 280 225 372 95 87 249 158 391 181 137 22 338
5 480 -40 185 -60 332 -183 412 -345 25 -50 54 -124 64 -163 18 -70 26 -79 52
-62 20 12 -9 113 -70 240 -44 91 -61 116 -137 191 -71 71 -103 94 -181 133
-90 44 -226 87 -277 87 -35 0 -28 15 19 36 24 10 68 44 98 74 129 127 162 311
84 475 -87 186 -309 279 -505 212z m281 -59 c106 -48 176 -133 206 -248 41
-162 -43 -343 -194 -417 -51 -25 -67 -28 -162 -28 -101 0 -108 1 -168 34 -126
69 -194 181 -196 321 -2 165 91 296 247 352 75 27 193 21 267 -14z"/>
<path d="M582 110 c0 -14 2 -19 5 -12 2 6 2 18 0 25 -3 6 -5 1 -5 -13z"/>
<path d="M1082 90 c0 -25 2 -39 5 -32 4 10 8 10 21 0 13 -11 14 -10 4 8 -6 12
-8 25 -4 29 4 5 2 5 -5 1 -7 -4 -13 2 -16 16 -2 13 -5 3 -5 -22z"/>
<path d="M1456 121 c-4 -5 3 -7 14 -4 27 7 26 -14 -2 -44 l-21 -23 29 1 c18 1
22 3 11 6 -17 4 -18 6 -2 24 10 10 15 25 12 34 -7 16 -32 20 -41 6z"/>
<path d="M1528 105 c-23 -30 -22 -35 2 -35 11 0 20 -6 20 -12 0 -10 2 -10 8 0
9 14 4 72 -7 72 -3 0 -14 -11 -23 -25z m22 -10 c0 -8 -7 -15 -16 -15 -14 0
-14 3 -4 15 7 8 14 15 16 15 2 0 4 -7 4 -15z"/>
<path d="M1582 118 c-15 -15 -15 -30 1 -52 16 -22 47 -11 47 18 0 21 -17 46
-30 46 -3 0 -11 -5 -18 -12z m33 -28 c0 -27 -20 -38 -28 -15 -8 20 3 47 17 42
6 -2 11 -14 11 -27z"/>
<path d="M1644 116 c-11 -28 0 -61 21 -61 16 0 20 7 20 35 0 25 -5 36 -18 38
-9 2 -20 -3 -23 -12z m36 -26 c0 -20 -5 -30 -15 -30 -10 0 -15 10 -15 30 0 20
5 30 15 30 10 0 15 -10 15 -30z"/>
<path d="M1715 120 c-3 -6 1 -7 9 -4 23 9 20 -16 -6 -43 l-21 -23 29 1 c18 1
22 3 11 6 -17 4 -18 6 -2 24 10 10 15 25 12 34 -7 17 -23 20 -32 5z"/>
<path d="M1791 130 c-1 -3 -3 -22 -4 -43 -2 -31 1 -37 18 -37 13 0 16 3 8 8
-6 4 -13 23 -16 42 -2 19 -5 33 -6 30z"/>
<path d="M1846 106 c-21 -34 -21 -36 12 -35 24 2 25 2 4 6 -23 4 -23 5 -6 24
9 10 15 21 12 24 -3 3 -13 -6 -22 -19z"/>
<path d="M1905 120 c-3 -5 0 -7 8 -4 24 9 28 -12 7 -31 -27 -25 -25 -35 8 -34
21 0 23 2 9 7 -15 7 -16 10 -3 27 7 10 12 25 9 32 -6 15 -29 17 -38 3z"/>
<path d="M1974 105 c-18 -28 -13 -55 11 -55 23 0 31 31 12 45 -12 9 -14 14 -5
23 7 7 9 12 5 12 -3 0 -14 -11 -23 -25z m26 -30 c0 -8 -7 -15 -15 -15 -8 0
-15 7 -15 15 0 8 7 15 15 15 8 0 15 -7 15 -15z"/>
<path d="M2038 123 c26 -5 26 -6 7 -43 -9 -17 -13 -30 -10 -30 2 0 14 18 25
40 l20 40 -32 -1 c-24 -1 -27 -3 -10 -6z"/>
<path d="M700 91 c0 -17 4 -32 8 -35 4 -2 6 11 4 30 -5 42 -12 45 -12 5z"/>
<path d="M740 86 c0 -28 4 -36 18 -36 13 0 14 2 3 9 -8 5 -12 18 -8 30 3 12 1
24 -4 27 -5 3 -9 -11 -9 -30z"/>
<path d="M927 112 c-7 -10 4 -62 12 -62 4 0 5 16 3 35 -4 36 -7 41 -15 27z"/>
<path d="M874 99 c-4 -7 1 -16 12 -22 17 -10 17 -11 -1 -18 -16 -6 -17 -8 -3
-8 25 -1 34 20 13 31 -14 8 -15 12 -4 19 9 6 10 9 2 9 -6 0 -15 -5 -19 -11z"/>
<path d="M972 101 c-20 -12 -10 -46 13 -46 13 0 20 7 21 20 1 15 0 16 -3 3 -5
-21 -33 -24 -33 -5 0 7 5 18 12 25 14 14 9 15 -10 3z"/>
<path d="M1220 95 c-7 -8 -9 -22 -6 -31 8 -22 41 -13 42 11 1 15 0 16 -3 3 -5
-21 -33 -24 -33 -5 0 7 5 18 12 25 7 7 9 12 6 12 -3 0 -11 -7 -18 -15z"/>
<path d="M1283 94 c-3 -8 -3 -18 1 -21 3 -4 6 2 6 12 0 23 16 9 23 -20 4 -16
5 -14 6 6 1 30 -26 48 -36 23z"/>
<path d="M530 91 c0 -5 5 -13 11 -17 8 -4 7 -9 -2 -15 -11 -7 -10 -9 4 -9 21
0 22 16 2 36 -8 9 -15 11 -15 5z"/>
<path d="M612 75 c0 -16 2 -22 5 -12 2 9 2 23 0 30 -3 6 -5 -1 -5 -18z"/>
<path d="M641 78 c-1 -22 4 -28 19 -28 15 0 20 6 19 28 -2 23 -2 24 -6 5 -2
-13 -8 -23 -13 -23 -5 0 -11 10 -13 23 -4 19 -4 18 -6 -5z"/>
<path d="M784 75 c1 -12 9 -21 21 -22 14 -1 15 0 3 3 -9 3 -19 13 -21 22 -3
12 -4 11 -3 -3z"/>
<path d="M842 75 c0 -16 2 -22 5 -12 2 9 2 23 0 30 -3 6 -5 -1 -5 -18z"/>
<path d="M1026 91 c-10 -15 5 -41 22 -41 13 0 13 2 -3 13 -10 8 -15 19 -11 25
4 7 5 12 2 12 -3 0 -7 -4 -10 -9z"/>
<path d="M1164 75 c1 -12 9 -21 21 -22 14 -1 15 0 3 3 -9 3 -19 13 -21 22 -3
12 -4 11 -3 -3z"/>
<path d="M1342 75 c0 -16 2 -22 5 -12 2 9 2 23 0 30 -3 6 -5 -1 -5 -18z"/>
</g>
</svg>
