<?xml version="1.0" standalone="no"?>
<!DOCTYPE svg PUBLIC "-//W3C//DTD SVG 20010904//EN"
 "http://www.w3.org/TR/2001/REC-SVG-20010904/DTD/svg10.dtd">
<svg version="1.0" xmlns="http://www.w3.org/2000/svg"
 width="557.000000pt" height="600.000000pt" viewBox="0 0 557.000000 600.000000"
 preserveAspectRatio="xMidYMid meet">

<g transform="translate(0.000000,600.000000) scale(0.100000,-0.100000)"
fill="#000000" stroke="none">
<path d="M2520 5990 c-8 -5 -34 -10 -57 -10 -23 0 -64 -4 -90 -9 -26 -6 -88
-17 -138 -27 -527 -98 -1058 -389 -1446 -791 -431 -446 -688 -982 -772 -1608
-14 -105 -14 -560 1 -655 45 -304 95 -495 187 -721 209 -513 591 -980 1037
-1271 239 -156 415 -242 683 -333 124 -42 269 -77 435 -104 317 -52 700 -39
1030 34 121 27 312 84 385 114 261 110 368 166 555 291 158 106 253 183 399
325 252 245 487 582 605 870 16 39 37 88 47 110 57 132 129 397 158 590 6 39
14 93 18 120 11 71 8 546 -5 635 -29 212 -87 454 -142 595 -63 161 -110 272
-139 325 -155 293 -301 493 -520 711 -147 146 -243 227 -397 332 -285 195
-575 326 -909 407 -130 32 -183 42 -325 62 -103 14 -581 21 -600 8z m565 -111
c145 -16 267 -39 380 -71 97 -27 226 -67 250 -77 11 -5 56 -23 100 -41 128
-53 283 -134 411 -216 65 -42 121 -79 124 -83 3 -4 21 -18 40 -31 29 -20 112
-86 156 -125 30 -26 184 -178 225 -221 188 -200 405 -545 498 -789 13 -33 27
-69 31 -80 40 -96 103 -330 129 -480 53 -315 46 -702 -19 -1000 -89 -405 -256
-766 -506 -1091 -330 -429 -820 -769 -1334 -923 -149 -45 -143 -43 -340 -81
-258 -50 -615 -47 -945 10 -226 38 -492 130 -720 247 -109 57 -133 71 -237
138 -462 302 -791 699 -1027 1238 -59 133 -133 396 -160 567 -27 168 -33 250
-33 450 -1 199 4 262 33 440 21 132 63 294 119 455 41 117 48 133 131 301 226
456 606 861 1049 1118 49 28 263 135 320 159 124 53 355 124 480 146 36 7 83
16 105 21 51 11 221 30 305 34 97 4 333 -4 435 -15z"/>
<path d="M2610 4785 c-30 -7 -84 -23 -120 -35 -280 -98 -502 -339 -569 -620
-40 -170 -40 -270 0 -440 60 -249 243 -471 488 -591 63 -30 67 -26 -59 -50
-58 -10 -88 -18 -205 -49 -36 -9 -59 -18 -100 -35 -16 -7 -55 -23 -85 -36
-287 -120 -530 -332 -731 -635 -104 -156 -240 -479 -256 -605 l-5 -46 41 -7
c47 -7 61 -2 61 22 1 27 44 168 83 267 257 665 837 1055 1566 1055 133 0 201
-6 406 -36 733 -108 1200 -533 1366 -1244 7 -30 16 -59 20 -63 10 -13 80 4 86
20 8 20 -21 143 -64 273 -140 423 -416 749 -793 937 -167 83 -401 153 -592
178 -27 4 -48 11 -48 18 0 7 21 21 48 31 122 49 293 192 376 315 97 143 156
336 156 506 -1 336 -212 660 -526 807 -66 31 -87 37 -204 63 -78 18 -262 18
-340 0z m385 -116 c264 -76 474 -285 550 -548 82 -283 -14 -606 -237 -802 -34
-29 -69 -58 -79 -64 -10 -5 -37 -21 -61 -35 -120 -71 -223 -95 -393 -94 -121
1 -150 5 -216 27 -261 87 -437 260 -524 513 -35 103 -45 291 -22 400 51 239
204 438 422 548 39 20 78 36 87 36 9 0 19 4 22 9 3 5 23 12 43 15 21 4 61 11
88 16 75 13 239 3 320 -21z"/>
</g>
</svg>
